<?xml version="1.0"?>
<svg width="640" height="480" xmlns="http://www.w3.org/2000/svg" xmlns:xlink="http://www.w3.org/1999/xlink">
 <defs>
  <linearGradient id="linearGradient10391">
   <stop stop-color="#784421" id="stop10393"/>
   <stop stop-color="#784421" stop-opacity="0" id="stop10395" offset="1"/>
  </linearGradient>
  <linearGradient x2="0" id="linearGradient10397" xlink:href="#linearGradient10391"/>
  <linearGradient x2="0.6" x1="0.455" id="linearGradient10413" xlink:href="#linearGradient10405"/>
  <linearGradient id="linearGradient10405">
   <stop stop-color="#28170b" id="stop10407"/>
   <stop stop-color="#28170b" stop-opacity="0" id="stop10409" offset="1"/>
  </linearGradient>
 </defs>
 <metadata id="metadata6193">image/svg+xml</metadata>
 <g>
  <g id="layer1">
   <path fill="#cccccc" fill-rule="evenodd" stroke-width="0.496" id="path10399" d="m3.956428,9.468155l628.662224,2.931961l0,11.652344l-65.95636,2.618744l-45.687012,5.275101l110.265076,2.931931l2.756653,11.727737l-17.918091,0l-41.926025,9.923843l57.875732,2.894241l-0.788269,55.666824l-625.905668,3.90921l-1.493118,-19.605835l35.432012,-10.812439l-37.126752,-12.520218l1.809598,-66.593445z"/>
   <path fill="#decd87" fill-rule="evenodd" stroke="#452e00" stroke-width="0.764" id="path9434" d="m2.848407,3.392609l629.497724,2.983398l0,11.856659l-66.044067,2.664658l-45.74762,5.367615l110.41156,2.983337l2.760315,11.93338l-17.941895,0l-41.981812,10.097885l57.952698,2.944992l-0.789307,56.64299l-626.737483,3.977753l-1.49512,-19.949646l35.479108,-11.002029l-37.176088,-12.739792l1.811986,-67.7612z"/>
   <path fill="url(#linearGradient10397)" fill-rule="evenodd" stroke-width="0.496" id="path10381" d="m2.456681,2.798698l629.497725,2.983391l0,11.856659l-66.044067,2.664673l-45.747681,5.367599l110.411621,2.983353l2.760315,11.93338l-17.941895,0l-41.98175,10.097885l57.952637,2.944992l-0.789307,56.64296l-626.737484,3.977783l-1.49512,-19.949646l35.479114,-11.00206l-37.176094,-12.739761l1.811985,-67.761208z"/>
   <path fill="none" fill-rule="evenodd" stroke="#806f49" stroke-width="0.764" id="path9436" d="m2.579029,14.320755c0,0 224.82806,-4.115829 257.216961,4.115845c32.388885,8.231674 52.182129,27.781891 107.063293,16.463364c54.881195,-11.318573 136.753113,-19.550247 155.646637,-19.550247c18.893494,0 109.628845,0.635056 109.628845,0.635056"/>
   <path fill="none" fill-rule="evenodd" stroke="#806f49" stroke-width="0.764" id="path9440" d="m302.98114,6.089096c0,0 10.716461,23.358719 39.586456,15.434357c22.49231,-6.173737 76.473785,-15.434387 82.771637,-15.434387"/>
   <path fill="none" fill-rule="evenodd" stroke="#806f49" stroke-width="0.764" id="path9444" d="m2.484179,36.95787c4.498454,1.028931 154.746961,-2.057938 179.938336,-2.057938c25.191345,0 -11.696014,9.260635 -48.583374,12.347534c-36.887337,3.086838 -132.254673,-1.028976 -132.254673,-1.028976"/>
   <path fill="none" fill-rule="evenodd" stroke="#806f49" stroke-width="0.764" id="path9446" d="m1.201399,68.855591c0,0 133.537432,-2.057907 203.713396,-11.318542c70.175934,-9.260651 98.966095,-10.289581 132.254669,-9.260651c33.288574,1.028976 110.662048,17.49231 161.944489,5.144791c51.28241,-12.347488 84.570984,-13.376465 94.467651,-13.376465c9.896545,0 37.787048,1.028976 37.787048,1.028976"/>
   <path fill="none" fill-rule="evenodd" stroke="#806f49" stroke-width="0.764" id="path9452" d="m36.288166,83.261032c0,0 103.848827,-10.289597 132.638973,-10.289597c28.790115,0 118.759262,18.521255 170.941391,10.289597c52.182129,-8.231674 110.662079,-17.492325 151.148224,-18.521255c40.486115,-1.029007 139.452179,15.434387 139.452179,15.434387l0.899719,0"/>
   <path fill="none" fill-rule="evenodd" stroke="#806f49" stroke-width="0.764" id="path9460" d="m2.695035,99.72435c0,0 117.648731,6.173767 154.536106,1.028976c36.88736,-5.144775 107.063324,-10.289581 136.753082,-9.260635c29.68988,1.028961 144.850372,-15.434387 165.543335,-11.318527c20.692902,4.115799 171.80246,9.260605 171.80246,9.260605"/>
   <path fill="none" fill-rule="evenodd" stroke="#806f49" stroke-width="0.764" id="path9464" d="m631.157715,96.637482c0,0 -117.648682,-5.144791 -150.037567,-7.202713c-32.388916,-2.057907 -46.783997,0 -62.978424,4.11586c-16.194458,4.115814 26.091064,7.202698 61.179016,8.231644c35.087952,1.028976 152.047913,3.086899 152.047913,3.086899"/>
   <path fill="none" fill-rule="evenodd" stroke="#806f49" stroke-width="0.764" id="path9466" d="m181.547424,113.514847c0,0 139.427582,-17.906296 165.518677,-16.877365c26.091003,1.028961 -60.029846,16.222168 -60.029846,16.222168"/>
   <path fill="#784421" stroke-width="0.213" d="m606.46698,58.816879a9.794288,11.513321 0 1 1-19.588501,0a9.794288,11.513321 0 1 119.588501,0z" id="path9492"/>
   <path fill="url(#linearGradient10413)" stroke-width="0.213" d="m606.465698,58.870087a9.794288,11.513321 0 1 1-19.588501,0a9.794288,11.513321 0 1 119.588501,0z" id="path10403"/>
   <path fill="#784421" stroke-width="0.213" d="m47.55061,57.603577a9.794288,11.513321 0 1 1-19.588543,0a9.794288,11.513321 0 1 119.588543,0z" id="path10415"/>
   <path fill="url(#linearGradient10413)" stroke-width="0.213" d="m47.549263,57.656784a9.794288,11.513321 0 1 1-19.588541,0a9.794288,11.513321 0 1 119.588541,0z" id="path10417"/>
  </g>
  <g id="svg_1">
   <path id="svg_2" fill="#cccccc" fill-rule="evenodd" stroke-width="0.496" d="m4.95643,125.468147l628.662222,2.931969l0,11.652344l-65.95636,2.618744l-45.687012,5.275101l110.265076,2.931931l2.756653,11.727737l-17.918091,0l-41.926025,9.923843l57.875732,2.894257l-0.788269,55.666809l-625.905666,3.90921l-1.49312,-19.605835l35.432009,-10.812439l-37.126749,-12.520218l1.809601,-66.593452z"/>
   <path id="svg_3" fill="#decd87" fill-rule="evenodd" stroke="#452e00" stroke-width="0.764" d="m3.84841,119.392609l629.497721,2.983406l0,11.856651l-66.044067,2.664658l-45.74762,5.367615l110.41156,2.983337l2.760315,11.93338l-17.941895,0l-41.981812,10.097885l57.952698,2.944977l-0.789307,56.643005l-626.737484,3.977753l-1.495119,-19.949646l35.479109,-11.002029l-37.176088,-12.739792l1.811989,-67.7612z"/>
   <path id="svg_4" fill="url(#linearGradient10397)" fill-rule="evenodd" stroke-width="0.496" d="m3.45668,118.798698l629.497726,2.983391l0,11.856659l-66.044067,2.664673l-45.747681,5.367599l110.411621,2.983353l2.760315,11.93338l-17.941895,0l-41.98175,10.097885l57.952637,2.944992l-0.789307,56.64296l-626.73748,3.977783l-1.495119,-19.949646l35.479109,-11.00206l-37.176088,-12.739761l1.811979,-67.761208z"/>
   <path id="svg_5" fill="none" fill-rule="evenodd" stroke="#806f49" stroke-width="0.764" d="m3.579029,130.320755c0,0 224.82806,-4.115829 257.216961,4.115845c32.388885,8.231674 52.182129,27.781891 107.063293,16.463364c54.881195,-11.318573 136.753143,-19.550247 155.646637,-19.550247c18.893494,0 109.628845,0.635056 109.628845,0.635056"/>
   <path id="svg_6" fill="none" fill-rule="evenodd" stroke="#806f49" stroke-width="0.764" d="m303.98114,122.089104c0,0 10.716461,23.358711 39.586456,15.434349c22.49231,-6.173737 76.473785,-15.43438 82.771637,-15.43438"/>
   <path id="svg_7" fill="none" fill-rule="evenodd" stroke="#806f49" stroke-width="0.764" d="m3.48418,152.95787c4.498449,1.028931 154.74696,-2.057938 179.938335,-2.057938c25.191345,0 -11.696014,9.260635 -48.583374,12.347549c-36.887329,3.086823 -132.254671,-1.028992 -132.254671,-1.028992"/>
   <path id="svg_8" fill="none" fill-rule="evenodd" stroke="#806f49" stroke-width="0.764" d="m2.201401,184.855591c0,0 133.53743,-2.057907 203.713394,-11.318542c70.175934,-9.260635 98.966095,-10.289566 132.254669,-9.260635c33.288574,1.028961 110.662048,17.492294 161.944489,5.144775c51.28241,-12.347488 84.570984,-13.376465 94.467651,-13.376465c9.896545,0 37.787048,1.028976 37.787048,1.028976"/>
   <path id="svg_9" fill="none" fill-rule="evenodd" stroke="#806f49" stroke-width="0.764" d="m37.28817,199.261032c0,0 103.848824,-10.289597 132.638969,-10.289597c28.790115,0 118.759262,18.521255 170.941391,10.289597c52.182129,-8.231674 110.662079,-17.492325 151.148224,-18.521255c40.486115,-1.029007 139.452179,15.434387 139.452179,15.434387l0.899719,0"/>
   <path id="svg_10" fill="none" fill-rule="evenodd" stroke="#806f49" stroke-width="0.764" d="m3.69503,215.72435c0,0 117.64875,6.173767 154.53611,1.028976c36.88736,-5.144775 107.063324,-10.289581 136.753082,-9.260635c29.68988,1.028961 144.850372,-15.434387 165.543335,-11.318527c20.692902,4.115799 171.80246,9.260605 171.80246,9.260605"/>
   <path id="svg_11" fill="none" fill-rule="evenodd" stroke="#806f49" stroke-width="0.764" d="m632.157715,212.637482c0,0 -117.648682,-5.144791 -150.037567,-7.202713c-32.388916,-2.057907 -46.783997,0 -62.978424,4.11586c-16.194458,4.115814 26.091064,7.202698 61.179016,8.231644c35.087952,1.028976 152.047913,3.086899 152.047913,3.086899"/>
   <path id="svg_12" fill="none" fill-rule="evenodd" stroke="#806f49" stroke-width="0.764" d="m182.547424,229.514847c0,0 139.427582,-17.906296 165.518677,-16.877365c26.091003,1.028961 -60.029846,16.222168 -60.029846,16.222168"/>
   <path id="svg_13" fill="#784421" stroke-width="0.213" d="m607.46698,174.816879a9.79429,11.51332 0 1 1-19.588501,0a9.79429,11.51332 0 1 119.588501,0z"/>
   <path id="svg_14" fill="url(#linearGradient10413)" stroke-width="0.213" d="m607.465698,174.870087a9.79429,11.51332 0 1 1-19.588501,0a9.79429,11.51332 0 1 119.588501,0z"/>
   <path id="svg_15" fill="#784421" stroke-width="0.213" d="m48.550606,173.603577a9.79429,11.51332 0 1 1-19.588535,0a9.79429,11.51332 0 1 119.588535,0z"/>
   <path id="svg_16" fill="url(#linearGradient10413)" stroke-width="0.213" d="m48.549255,173.656784a9.79429,11.51332 0 1 1-19.588535,0a9.79429,11.51332 0 1 119.588535,0z"/>
  </g>
  <g id="svg_17">
   <path id="svg_18" fill="#cccccc" fill-rule="evenodd" stroke-width="0.496" d="m4.95643,242.46814l628.662222,2.931976l0,11.652344l-65.95636,2.618744l-45.687012,5.275085l110.265076,2.931946l2.756653,11.727722l-17.918091,0l-41.926025,9.923859l57.875732,2.894257l-0.788269,55.666809l-625.905666,3.90921l-1.49312,-19.605835l35.432009,-10.812439l-37.126749,-12.520233l1.809601,-66.593445z"/>
   <path id="svg_19" fill="#decd87" fill-rule="evenodd" stroke="#452e00" stroke-width="0.764" d="m3.84841,236.392609l629.497721,2.983398l0,11.856659l-66.044067,2.664658l-45.74762,5.36763l110.41156,2.983337l2.760315,11.93335l-17.941895,0l-41.981812,10.0979l57.952698,2.944977l-0.789307,56.643005l-626.737484,3.977753l-1.495119,-19.949646l35.479109,-11.002014l-37.176088,-12.739807l1.811989,-67.7612z"/>
   <path id="svg_20" fill="url(#linearGradient10397)" fill-rule="evenodd" stroke-width="0.496" d="m3.45668,235.798706l629.497726,2.983383l0,11.856659l-66.044067,2.664673l-45.747681,5.367599l110.411621,2.983337l2.760315,11.933411l-17.941895,0l-41.98175,10.09787l57.952637,2.945007l-0.789307,56.642944l-626.73748,3.977783l-1.495119,-19.949646l35.479109,-11.002045l-37.176088,-12.739777l1.811979,-67.7612z"/>
   <path id="svg_21" fill="none" fill-rule="evenodd" stroke="#806f49" stroke-width="0.764" d="m3.579029,247.320755c0,0 224.82806,-4.115829 257.216961,4.115845c32.388885,8.231674 52.182129,27.781906 107.063293,16.463364c54.881195,-11.318573 136.753143,-19.550247 155.646637,-19.550247c18.893494,0 109.628845,0.635056 109.628845,0.635056"/>
   <path id="svg_22" fill="none" fill-rule="evenodd" stroke="#806f49" stroke-width="0.764" d="m303.98114,239.089111c0,0 10.716461,23.358704 39.586456,15.434341c22.49231,-6.173737 76.473785,-15.434372 82.771637,-15.434372"/>
   <path id="svg_23" fill="none" fill-rule="evenodd" stroke="#806f49" stroke-width="0.764" d="m3.48418,269.957886c4.498449,1.028931 154.74696,-2.057953 179.938335,-2.057953c25.191345,0 -11.696014,9.260651 -48.583374,12.347565c-36.887329,3.086792 -132.254671,-1.028992 -132.254671,-1.028992"/>
   <path id="svg_24" fill="none" fill-rule="evenodd" stroke="#806f49" stroke-width="0.764" d="m2.201401,301.855591c0,0 133.53743,-2.057922 203.713394,-11.318542c70.175934,-9.26062 98.966095,-10.289551 132.254669,-9.26062c33.288574,1.028931 110.662048,17.492279 161.944489,5.144745c51.28241,-12.347473 84.570984,-13.376434 94.467651,-13.376434c9.896545,0 37.787048,1.028961 37.787048,1.028961"/>
   <path id="svg_25" fill="none" fill-rule="evenodd" stroke="#806f49" stroke-width="0.764" d="m37.28817,316.261047c0,0 103.848824,-10.289612 132.638969,-10.289612c28.790115,0 118.759262,18.521271 170.941391,10.289612c52.182129,-8.231689 110.662079,-17.49234 151.148254,-18.521271c40.486084,-1.029022 139.452148,15.434387 139.452148,15.434387l0.899719,0"/>
   <path id="svg_26" fill="none" fill-rule="evenodd" stroke="#806f49" stroke-width="0.764" d="m3.69503,332.724335c0,0 117.64875,6.173798 154.53611,1.028992c36.88736,-5.144775 107.063324,-10.289581 136.753082,-9.26062c29.68988,1.028931 144.850372,-15.434387 165.543335,-11.318542c20.692902,4.115784 171.80246,9.26059 171.80246,9.26059"/>
   <path id="svg_27" fill="none" fill-rule="evenodd" stroke="#806f49" stroke-width="0.764" d="m632.157715,329.637482c0,0 -117.648682,-5.144775 -150.037567,-7.202728c-32.388916,-2.057892 -46.783997,0 -62.978424,4.115875c-16.194458,4.115814 26.091064,7.202698 61.179016,8.231628c35.087952,1.028992 152.047913,3.086914 152.047913,3.086914"/>
   <path id="svg_28" fill="none" fill-rule="evenodd" stroke="#806f49" stroke-width="0.764" d="m182.547424,346.514832c0,0 139.427582,-17.906281 165.518677,-16.87735c26.091003,1.028961 -60.029846,16.222168 -60.029846,16.222168"/>
   <path id="svg_29" fill="#784421" stroke-width="0.213" d="m607.46698,291.816864a9.79429,11.51332 0 1 1-19.588501,0a9.79429,11.51332 0 1 119.588501,0z"/>
   <path id="svg_30" fill="url(#linearGradient10413)" stroke-width="0.213" d="m607.465698,291.870087a9.79429,11.51332 0 1 1-19.588501,0a9.79429,11.51332 0 1 119.588501,0z"/>
   <path id="svg_31" fill="#784421" stroke-width="0.213" d="m48.550606,290.603577a9.79429,11.51332 0 1 1-19.588535,0a9.79429,11.51332 0 1 119.588535,0z"/>
   <path id="svg_32" fill="url(#linearGradient10413)" stroke-width="0.213" d="m48.549255,290.656799a9.79429,11.51332 0 1 1-19.588535,0a9.79429,11.51332 0 1 119.588535,0z"/>
  </g>
  <g id="svg_33">
   <path id="svg_34" fill="#cccccc" fill-rule="evenodd" stroke-width="0.496" d="m8.95643,361.46814l628.662222,2.931976l0,11.652344l-65.95636,2.618744l-45.687012,5.275085l110.265076,2.931946l2.756653,11.727722l-17.918091,0l-41.926025,9.923859l57.875732,2.894257l-0.788269,55.666809l-625.905666,3.90921l-1.49312,-19.605835l35.432009,-10.812439l-37.126749,-12.520233l1.809601,-66.593445z"/>
   <path id="svg_35" fill="#decd87" fill-rule="evenodd" stroke="#452e00" stroke-width="0.764" d="m7.84841,355.392609l629.497721,2.983398l0,11.856659l-66.044067,2.664673l-45.74762,5.367615l110.41156,2.983337l2.760315,11.93335l-17.941895,0l-41.981812,10.0979l57.952698,2.944977l-0.789307,56.643005l-626.737484,3.977753l-1.495119,-19.949646l35.479109,-11.002014l-37.176088,-12.739807l1.811989,-67.7612z"/>
   <path id="svg_36" fill="url(#linearGradient10397)" fill-rule="evenodd" stroke-width="0.496" d="m7.45668,354.798706l629.497726,2.983368l0,11.856689l-66.044067,2.664673l-45.747681,5.367584l110.411621,2.983337l2.760315,11.933411l-17.941895,0l-41.98175,10.09787l57.952637,2.945007l-0.789307,56.642944l-626.73748,3.977783l-1.495119,-19.949646l35.479109,-11.002045l-37.176088,-12.739777l1.811979,-67.7612z"/>
   <path id="svg_37" fill="none" fill-rule="evenodd" stroke="#806f49" stroke-width="0.764" d="m7.579029,366.32077c0,0 224.82806,-4.115845 257.216961,4.115814c32.388885,8.231689 52.182129,27.781921 107.063293,16.463379c54.881195,-11.318573 136.753143,-19.550232 155.646637,-19.550232c18.893494,0 109.628845,0.63504 109.628845,0.63504"/>
   <path id="svg_38" fill="none" fill-rule="evenodd" stroke="#806f49" stroke-width="0.764" d="m307.98114,358.089111c0,0 10.716461,23.358704 39.586456,15.434357c22.49231,-6.173737 76.473785,-15.434387 82.771637,-15.434387"/>
   <path id="svg_39" fill="none" fill-rule="evenodd" stroke="#806f49" stroke-width="0.764" d="m7.48418,388.957886c4.498449,1.028931 154.74696,-2.057953 179.938335,-2.057953c25.191345,0 -11.696014,9.260651 -48.583374,12.347565c-36.887329,3.086792 -132.254671,-1.028992 -132.254671,-1.028992"/>
   <path id="svg_40" fill="none" fill-rule="evenodd" stroke="#806f49" stroke-width="0.764" d="m6.201401,420.855591c0,0 133.53743,-2.057922 203.713394,-11.318542c70.175934,-9.26062 98.966095,-10.289551 132.254669,-9.26062c33.288574,1.028931 110.662048,17.492279 161.944489,5.144745c51.28241,-12.347473 84.570984,-13.376434 94.467651,-13.376434c9.896545,0 37.787048,1.028961 37.787048,1.028961"/>
   <path id="svg_41" fill="none" fill-rule="evenodd" stroke="#806f49" stroke-width="0.764" d="m41.28817,435.261047c0,0 103.848824,-10.289612 132.638969,-10.289612c28.790115,0 118.759262,18.521271 170.941391,10.289612c52.182129,-8.231689 110.662079,-17.49234 151.148254,-18.521271c40.486084,-1.029022 139.452148,15.434387 139.452148,15.434387l0.899719,0"/>
   <path id="svg_42" fill="none" fill-rule="evenodd" stroke="#806f49" stroke-width="0.764" d="m7.69503,451.724335c0,0 117.64875,6.173798 154.53611,1.028992c36.88736,-5.144775 107.063324,-10.289581 136.753082,-9.26062c29.68988,1.028931 144.850372,-15.434387 165.543335,-11.318542c20.692902,4.115784 171.80246,9.26059 171.80246,9.26059"/>
   <path id="svg_43" fill="none" fill-rule="evenodd" stroke="#806f49" stroke-width="0.764" d="m636.157715,448.637482c0,0 -117.648682,-5.144775 -150.037567,-7.202728c-32.388916,-2.057892 -46.783997,0 -62.978424,4.115875c-16.194458,4.115814 26.091064,7.202698 61.179016,8.231628c35.087952,1.028992 152.047913,3.086914 152.047913,3.086914"/>
   <path id="svg_44" fill="none" fill-rule="evenodd" stroke="#806f49" stroke-width="0.764" d="m186.547424,465.514832c0,0 139.427582,-17.906281 165.518677,-16.87735c26.091003,1.028961 -60.029846,16.222168 -60.029846,16.222168"/>
   <path id="svg_45" fill="#784421" stroke-width="0.213" d="m611.46698,410.816864a9.79429,11.51332 0 1 1-19.588501,0a9.79429,11.51332 0 1 119.588501,0z"/>
   <path id="svg_46" fill="url(#linearGradient10413)" stroke-width="0.213" d="m611.465698,410.870087a9.79429,11.51332 0 1 1-19.588501,0a9.79429,11.51332 0 1 119.588501,0z"/>
   <path id="svg_47" fill="#784421" stroke-width="0.213" d="m52.550606,409.603577a9.79429,11.51332 0 1 1-19.588535,0a9.79429,11.51332 0 1 119.588535,0z"/>
   <path id="svg_48" fill="url(#linearGradient10413)" stroke-width="0.213" d="m52.549255,409.656799a9.79429,11.51332 0 1 1-19.588535,0a9.79429,11.51332 0 1 119.588535,0z"/>
  </g>
 </g>
</svg>
